<svg viewBox="280 -50 340 340" fill="none" xmlns="http://www.w3.org/2000/svg">
  <path d="M337.719 112.774C395.553 112.774 442.437 159.659 442.438 217.493C442.438 225.094 441.627 232.505 440.089 239.646H235.349C233.811 232.505 233 225.094 233 217.493C233 159.659 279.884 112.774 337.719 112.774Z" fill="#A8D7BB"/>
  <path fill-rule="evenodd" clip-rule="evenodd" d="M537.77 239.645C570.352 215.422 591.461 176.632 591.461 132.912C591.461 59.5069 531.954 0 458.548 0C385.143 0 325.636 59.5069 325.636 132.912C325.636 176.632 346.745 215.422 379.327 239.645H537.77Z" fill="#3F9461"/>
  <path d="M556.219 102.705C619.059 102.705 670 153.647 670 216.486C670 224.422 669.187 232.168 667.641 239.646H444.797C443.251 232.168 442.438 224.422 442.438 216.486C442.438 153.647 493.38 102.705 556.219 102.705Z" fill="#A8D7BB"/>
</svg>
