<svg width="917" height="424" viewBox="0 0 917 424" fill="none" xmlns="http://www.w3.org/2000/svg">
<path d="M63.9527 333.92C68.7527 336.56 72.6327 340.24 75.5927 344.96C78.6327 349.68 80.1527 354.64 80.1527 359.84C80.1527 365.76 78.6727 371.08 75.7127 375.8C72.7527 380.44 68.6727 384.08 63.4727 386.72C58.2727 389.28 52.3527 390.56 45.7127 390.56H18.2327C15.9927 390.56 14.0727 389.8 12.4727 388.28C10.8727 386.76 10.0727 384.96 10.0727 382.88V299.12C10.0727 297.04 10.7927 295.28 12.2327 293.84C13.7527 292.4 15.6727 291.6 17.9927 291.44C20.7927 291.36 24.5927 291.32 29.3927 291.32C34.2727 291.24 38.2727 291.2 41.3927 291.2C47.3927 291.2 52.7127 292.28 57.3527 294.44C62.0727 296.6 65.7127 299.64 68.2727 303.56C70.9127 307.48 72.2327 311.96 72.2327 317C72.2327 320.6 71.5527 323.8 70.1927 326.6C68.8327 329.32 66.7527 331.76 63.9527 333.92ZM25.5527 306.68V328.64H41.6327C45.4727 328.64 48.4727 328.32 50.6327 327.68C52.7927 327.04 54.3527 325.88 55.3127 324.2C56.3527 322.52 56.8727 320.12 56.8727 317C56.8727 313.48 55.5927 310.88 53.0327 309.2C50.5527 307.52 46.6727 306.68 41.3927 306.68H25.5527ZM45.7127 375.08C51.9527 375.08 56.6727 373.8 59.8727 371.24C63.1527 368.68 64.7927 364.88 64.7927 359.84C64.7927 354.72 63.1927 350.56 59.9927 347.36C56.7927 344.16 52.5527 342.56 47.2727 342.56H25.5527V375.08H45.7127ZM171.245 392.48C161.965 392.48 153.605 390.36 146.165 386.12C138.725 381.8 132.845 375.8 128.525 368.12C124.285 360.44 122.165 351.68 122.165 341.84C122.165 332 124.285 323.24 128.525 315.56C132.845 307.88 138.725 301.92 146.165 297.68C153.605 293.36 161.965 291.2 171.245 291.2C180.525 291.2 188.885 293.36 196.325 297.68C203.765 301.92 209.605 307.88 213.845 315.56C218.085 323.24 220.205 332 220.205 341.84C220.205 351.68 218.085 360.44 213.845 368.12C209.605 375.8 203.765 381.8 196.325 386.12C188.885 390.36 180.525 392.48 171.245 392.48ZM171.245 377C177.645 377 183.365 375.56 188.405 372.68C193.525 369.72 197.525 365.6 200.405 360.32C203.285 354.96 204.725 348.8 204.725 341.84C204.725 334.88 203.285 328.76 200.405 323.48C197.525 318.12 193.525 314 188.405 311.12C183.365 308.16 177.645 306.68 171.245 306.68C164.845 306.68 159.085 308.16 153.965 311.12C148.845 314 144.845 318.12 141.965 323.48C139.085 328.76 137.645 334.88 137.645 341.84C137.645 348.8 139.085 354.96 141.965 360.32C144.845 365.6 148.845 369.72 153.965 372.68C159.085 375.56 164.845 377 171.245 377ZM274.628 390.92C272.548 390.92 270.748 390.2 269.228 388.76C267.708 387.32 266.948 385.64 266.948 383.72V299.24C266.948 297.16 267.748 295.36 269.348 293.84C271.028 292.24 272.988 291.44 275.228 291.44C277.708 291.44 279.788 292.52 281.468 294.68L335.468 361.16L336.428 363.08V297.68C336.428 295.76 337.188 294.08 338.708 292.64C340.228 291.2 342.028 290.48 344.108 290.48C346.188 290.48 347.988 291.2 349.508 292.64C351.108 294.08 351.908 295.76 351.908 297.68V381.56C351.908 383.64 351.068 385.48 349.388 387.08C347.708 388.6 345.748 389.36 343.508 389.36C342.388 389.36 341.268 389.08 340.148 388.52C339.028 387.88 338.068 387.08 337.268 386.12L283.388 320L282.428 317.96V383.72C282.428 385.64 281.628 387.32 280.028 388.76C278.508 390.2 276.708 390.92 274.628 390.92ZM429.927 391.28C423.687 391.28 417.767 389.76 412.167 386.72C406.567 383.6 402.167 379.44 398.967 374.24C398.327 373.12 398.007 371.8 398.007 370.28C398.007 367.8 398.607 365.84 399.807 364.4C401.087 362.96 402.767 362.24 404.847 362.24C406.607 362.24 408.127 362.6 409.407 363.32C410.687 364.04 411.807 365.2 412.767 366.8C414.287 369.36 416.647 371.48 419.847 373.16C423.127 374.76 426.487 375.56 429.927 375.56C441.447 375.56 447.207 371.56 447.207 363.56C447.207 360.12 445.767 357 442.887 354.2C440.087 351.4 435.607 348.56 429.447 345.68C422.167 342.32 416.487 339.28 412.407 336.56C408.407 333.76 405.527 330.8 403.767 327.68C402.007 324.48 401.127 320.72 401.127 316.4C401.127 311.44 402.447 307.04 405.087 303.2C407.727 299.28 411.367 296.24 416.007 294.08C420.647 291.84 425.847 290.72 431.607 290.72C438.007 290.72 443.887 292.16 449.247 295.04C454.607 297.84 458.687 301.68 461.487 306.56C462.287 307.84 462.687 309.16 462.687 310.52C462.687 312.44 462.047 314.12 460.767 315.56C459.567 317 458.047 317.72 456.207 317.72C454.847 317.72 453.447 317.36 452.007 316.64C450.567 315.84 449.447 314.88 448.647 313.76C446.807 311.2 444.487 309.32 441.687 308.12C438.967 306.92 435.607 306.32 431.607 306.32C426.887 306.32 423.167 307.2 420.447 308.96C417.807 310.64 416.487 313.12 416.487 316.4C416.487 318.4 416.967 320.08 417.927 321.44C418.967 322.72 420.687 324.04 423.087 325.4C425.567 326.76 429.607 328.72 435.207 331.28C444.967 335.84 451.967 340.6 456.207 345.56C460.527 350.52 462.687 356.52 462.687 363.56C462.687 369.08 461.327 373.96 458.607 378.2C455.887 382.36 452.047 385.6 447.087 387.92C442.127 390.16 436.407 391.28 429.927 391.28ZM525.271 383.48C525.271 385.48 524.551 387.2 523.111 388.64C521.751 390 520.071 390.68 518.071 390.68C516.071 390.68 514.351 390 512.911 388.64C511.551 387.2 510.871 385.48 510.871 383.48V298.4C510.871 296.4 511.551 294.72 512.911 293.36C514.351 291.92 516.071 291.2 518.071 291.2C520.071 291.2 521.751 291.92 523.111 293.36C524.551 294.72 525.271 296.4 525.271 298.4V383.48ZM624.309 391.88C614.789 391.88 606.229 389.76 598.629 385.52C591.109 381.28 585.189 375.32 580.869 367.64C576.629 359.88 574.509 351.04 574.509 341.12C574.509 331.6 576.789 323.04 581.349 315.44C585.909 307.76 592.109 301.76 599.949 297.44C607.789 293.04 616.509 290.84 626.109 290.84C632.829 290.84 639.669 292.28 646.629 295.16C653.589 298.04 658.949 301.8 662.709 306.44C663.189 307.08 663.589 307.84 663.909 308.72C664.229 309.52 664.389 310.28 664.389 311C664.389 313 663.709 314.72 662.349 316.16C660.989 317.52 659.269 318.2 657.189 318.2C656.309 318.2 655.309 317.96 654.189 317.48C653.149 317 652.349 316.4 651.789 315.68C649.389 312.8 645.589 310.36 640.389 308.36C635.189 306.28 630.429 305.24 626.109 305.24C619.309 305.24 613.149 306.76 607.629 309.8C602.109 312.84 597.789 317.08 594.669 322.52C591.549 327.96 589.989 334.16 589.989 341.12C589.989 348.4 591.429 354.72 594.309 360.08C597.189 365.44 601.189 369.52 606.309 372.32C611.509 375.12 617.509 376.52 624.309 376.52C630.069 376.52 635.149 375.8 639.549 374.36C644.029 372.84 647.469 370.8 649.869 368.24C652.349 365.6 653.589 362.68 653.589 359.48C653.589 355.8 652.309 352.84 649.749 350.6C647.269 348.28 643.869 347.12 639.549 347.12C635.949 347.12 632.069 347.36 627.909 347.84C627.509 347.92 626.789 347.96 625.749 347.96C623.509 347.96 621.709 347.36 620.349 346.16C618.989 344.96 618.309 343.32 618.309 341.24C618.309 337 621.229 334.4 627.069 333.44C628.189 333.28 629.989 333.12 632.469 332.96C635.029 332.8 637.309 332.72 639.309 332.72C645.069 332.72 650.109 333.88 654.429 336.2C658.749 338.44 662.069 341.6 664.389 345.68C666.789 349.68 667.989 354.28 667.989 359.48C667.989 365.48 666.109 370.96 662.349 375.92C658.589 380.88 653.349 384.8 646.629 387.68C639.989 390.48 632.549 391.88 624.309 391.88ZM781.72 292.28C783.8 292.28 785.6 293 787.12 294.44C788.72 295.8 789.52 297.48 789.52 299.48V383.48C789.52 385.48 788.72 387.2 787.12 388.64C785.6 390 783.8 390.68 781.72 390.68C779.64 390.68 777.84 390 776.32 388.64C774.8 387.2 774.04 385.48 774.04 383.48V344H728.56V383.48C728.56 385.48 727.76 387.2 726.16 388.64C724.64 390 722.84 390.68 720.76 390.68C718.68 390.68 716.88 390 715.36 388.64C713.84 387.2 713.08 385.48 713.08 383.48V299.48C713.08 297.48 713.84 295.8 715.36 294.44C716.88 293 718.68 292.28 720.76 292.28C722.84 292.28 724.64 293 726.16 294.44C727.76 295.8 728.56 297.48 728.56 299.48V329.6H774.04V299.48C774.04 297.48 774.8 295.8 776.32 294.44C777.84 293 779.64 292.28 781.72 292.28ZM905.065 293C907.065 293 908.745 293.72 910.105 295.16C911.545 296.52 912.265 298.2 912.265 300.2C912.265 302.2 911.545 303.92 910.105 305.36C908.745 306.72 907.065 307.4 905.065 307.4H880.705V383.48C880.705 385.48 879.905 387.2 878.305 388.64C876.785 390 874.985 390.68 872.905 390.68C870.825 390.68 869.025 390 867.505 388.64C865.985 387.2 865.225 385.48 865.225 383.48V307.4H840.745C838.745 307.4 837.025 306.72 835.585 305.36C834.225 303.92 833.545 302.2 833.545 300.2C833.545 298.2 834.225 296.52 835.585 295.16C837.025 293.72 838.745 293 840.745 293H905.065Z" fill="#3A3A3A"/>
<path d="M337.719 112.774C395.553 112.774 442.437 159.659 442.438 217.493C442.438 225.094 441.627 232.505 440.089 239.646H235.349C233.811 232.505 233 225.094 233 217.493C233 159.659 279.884 112.774 337.719 112.774Z" fill="#A8D7BB"/>
<path fill-rule="evenodd" clip-rule="evenodd" d="M537.77 239.645C570.352 215.422 591.461 176.632 591.461 132.912C591.461 59.5069 531.954 0 458.548 0C385.143 0 325.636 59.5069 325.636 132.912C325.636 176.632 346.745 215.422 379.327 239.645H537.77Z" fill="#3F9461"/>
<path d="M556.219 102.705C619.059 102.705 670 153.647 670 216.486C670 224.422 669.187 232.168 667.641 239.646H444.797C443.251 232.168 442.438 224.422 442.438 216.486C442.438 153.647 493.38 102.705 556.219 102.705Z" fill="#A8D7BB"/>
</svg>